<svg width="56" height="56" viewBox="0 0 56 56" fill="none" xmlns="http://www.w3.org/2000/svg">
<g id="la:id-card">
<g id="Group">
<path id="Vector" d="M18.7692 37.2308L37.2308 18.7692M28 52C34.3652 52 40.4697 49.4714 44.9706 44.9706C49.4714 40.4697 52 34.3652 52 28C52 21.6348 49.4714 15.5303 44.9706 11.0294C40.4697 6.52856 34.3652 4 28 4C21.6348 4 15.5303 6.52856 11.0294 11.0294C6.52856 15.5303 4 21.6348 4 28C4 34.3652 6.52856 40.4697 11.0294 44.9706C15.5303 49.4714 21.6348 52 28 52Z" stroke="white" stroke-width="3.69231" stroke-linecap="round" stroke-linejoin="round"/>
<path id="Vector_2" d="M20.6154 22.4616C21.105 22.4616 21.5746 22.2671 21.9208 21.9209C22.267 21.5746 22.4615 21.1051 22.4615 20.6154C22.4615 20.1258 22.267 19.6562 21.9208 19.31C21.5746 18.9638 21.105 18.7693 20.6154 18.7693C20.1257 18.7693 19.6562 18.9638 19.31 19.31C18.9637 19.6562 18.7692 20.1258 18.7692 20.6154C18.7692 21.1051 18.9637 21.5746 19.31 21.9209C19.6562 22.2671 20.1257 22.4616 20.6154 22.4616ZM35.3846 37.2308C35.8742 37.2308 36.3438 37.0363 36.69 36.6901C37.0363 36.3439 37.2308 35.8743 37.2308 35.3847C37.2308 34.895 37.0363 34.4255 36.69 34.0792C36.3438 33.733 35.8742 33.5385 35.3846 33.5385C34.895 33.5385 34.4254 33.733 34.0792 34.0792C33.733 34.4255 33.5385 34.895 33.5385 35.3847C33.5385 35.8743 33.733 36.3439 34.0792 36.6901C34.4254 37.0363 34.895 37.2308 35.3846 37.2308Z" stroke="white" stroke-width="3.69231" stroke-linecap="round" stroke-linejoin="round"/>
</g>
</g>
</svg>
