<svg width="56" height="56" viewBox="0 0 56 56" fill="none" xmlns="http://www.w3.org/2000/svg">
<g id="la:id-card">
<path id="Vector" d="M34.7975 37.25L30.265 41.7825L32.75 44.25L39.75 37.25L32.75 30.25L30.265 32.7175L34.7975 37.25ZM20.2025 37.25L24.735 32.7175L22.25 30.25L15.25 37.25L22.25 44.25L24.735 41.7825L20.2025 37.25Z" fill="white"/>
<path id="Vector_2" d="M15.25 19.75C16.2165 19.75 17 18.9665 17 18C17 17.0335 16.2165 16.25 15.25 16.25C14.2835 16.25 13.5 17.0335 13.5 18C13.5 18.9665 14.2835 19.75 15.25 19.75Z" fill="white"/>
<path id="Vector_3" d="M10 19.75C10.9665 19.75 11.75 18.9665 11.75 18C11.75 17.0335 10.9665 16.25 10 16.25C9.0335 16.25 8.25 17.0335 8.25 18C8.25 18.9665 9.0335 19.75 10 19.75Z" fill="white"/>
<path id="Vector_4" d="M48.5 11H6.5C4.56975 11 3 12.5715 3 14.5V49.5C3 51.4302 4.56975 53 6.5 53H48.5C50.4302 53 52 51.4302 52 49.5V14.5C52 12.5715 50.4302 11 48.5 11ZM48.5 14.5V21.5H6.5V14.5H48.5ZM6.5 49.5V25H48.5V49.5H6.5Z" fill="white"/>
</g>
</svg>
