<svg width="56" height="56" viewBox="0 0 56 56" fill="none" xmlns="http://www.w3.org/2000/svg">
<g id="la:id-card">
<path id="Vector" d="M8.75 10.5C5.87125 10.5 3.5 12.8713 3.5 15.75V40.25C3.5 43.1287 5.87125 45.5 8.75 45.5H47.25C50.1287 45.5 52.5 43.1287 52.5 40.25V15.75C52.5 12.8713 50.1287 10.5 47.25 10.5H8.75ZM8.75 14H47.25C48.2405 14 49 14.7595 49 15.75V40.25C49 41.2405 48.2405 42 47.25 42H8.75C7.7595 42 7 41.2405 7 40.25V15.75C7 14.7595 7.7595 14 8.75 14ZM19.25 17.5C15.4 17.5 12.25 20.65 12.25 24.5C12.25 26.4478 13.0848 28.2048 14.3832 29.477C13.1921 30.2808 12.2155 31.3637 11.5387 32.6314C10.8618 33.899 10.5053 35.313 10.5 36.75H14C14 33.831 16.331 31.5 19.25 31.5C22.169 31.5 24.5 33.831 24.5 36.75H28C27.9947 35.313 27.6382 33.899 26.9613 32.6314C26.2845 31.3637 25.3079 30.2808 24.1168 29.477C25.4153 28.2048 26.25 26.4495 26.25 24.5C26.25 20.65 23.1 17.5 19.25 17.5ZM31.5 19.25V22.75H45.5V19.25H31.5ZM19.25 21C21.2048 21 22.75 22.5452 22.75 24.5C22.75 26.4548 21.2048 28 19.25 28C17.2952 28 15.75 26.4548 15.75 24.5C15.75 22.5452 17.2952 21 19.25 21ZM31.5 26.25V29.75H45.5V26.25H31.5ZM31.5 33.25V36.75H40.25V33.25H31.5Z" fill="white"/>
</g>
</svg>
