<svg width="119" height="54" viewBox="0 0 119 54" fill="none" xmlns="http://www.w3.org/2000/svg">
<g clip-path="url(#clip0_2611_5328)">
<mask id="mask0_2611_5328" style="mask-type:luminance" maskUnits="userSpaceOnUse" x="0" y="0" width="119" height="54">
<path d="M119 0H0V54H119V0Z" fill="white"/>
</mask>
<g mask="url(#mask0_2611_5328)">
<path d="M12 30H115C117.209 30 119 31.7909 119 34V50C119 52.2091 117.209 54 115 54H7L12 30Z" fill="#CC0000"/>
<path d="M30.3335 48L34.874 35.856H37.5884L42.1953 48H39.4478L36.3931 39.4834C36.3267 39.2952 36.2713 39.1154 36.2271 38.9438C36.1883 38.7723 36.1523 38.6007 36.1191 38.4292H36.0527C36.0251 38.6007 35.9891 38.7723 35.9448 38.9438C35.9061 39.1154 35.8535 39.2952 35.7871 39.4834L32.7407 48H30.3335ZM32.915 45.3521L33.4878 43.4595H38.8418L39.4229 45.3521H32.915Z" fill="white"/>
<path d="M45.2517 42.3306V41.5835C45.2517 39.6522 45.7469 38.1857 46.7375 37.1841C47.7281 36.1769 49.0396 35.6733 50.6721 35.6733C52.1607 35.6733 53.3311 36.0386 54.1833 36.769C55.041 37.4995 55.4727 38.4126 55.4782 39.5083V39.6494H52.905V39.5498C52.905 39.0241 52.7085 38.5758 52.3156 38.2051C51.9283 37.8288 51.35 37.6406 50.5808 37.6406C49.7618 37.6406 49.106 37.9422 48.6135 38.5454C48.1265 39.1486 47.883 40.0617 47.883 41.2847V42.6294C47.883 43.8745 48.1459 44.7959 48.6716 45.3936C49.2028 45.9912 49.925 46.29 50.8381 46.29C51.2974 46.29 51.6903 46.243 52.0168 46.1489C52.3433 46.0493 52.6615 45.8888 52.9714 45.6675V43.5259H50.6721V41.6333H55.4865V46.5308C55.077 46.9513 54.4821 47.3415 53.7019 47.7012C52.9271 48.0609 51.9698 48.2407 50.8298 48.2407C49.0977 48.2407 47.7336 47.7399 46.7375 46.7383C45.7469 45.7311 45.2517 44.2619 45.2517 42.3306Z" fill="white"/>
<path d="M60.0453 48V35.9141H68.1635V37.873H62.5937V40.8281H67.4081V42.7456H62.5937V46.0493H68.2548V48H60.0453Z" fill="white"/>
<path d="M72.5563 48V35.9141H75.2872L79.5372 43.3516C79.6313 43.5231 79.7143 43.6836 79.7862 43.833C79.8582 43.9824 79.9218 44.1429 79.9771 44.3145H80.0436C80.038 44.1318 80.0325 43.9575 80.027 43.7915C80.027 43.62 80.027 43.4401 80.027 43.252V35.9141H82.2516V48H79.4708L75.254 40.6206C75.1599 40.4491 75.0769 40.283 75.005 40.1226C74.9386 39.9621 74.8777 39.7988 74.8224 39.6328H74.756C74.767 39.8154 74.7726 40.0036 74.7726 40.1973C74.7781 40.3854 74.7809 40.5708 74.7809 40.7534V48H72.5563Z" fill="white"/>
<path d="M86.1131 37.873V35.9141H95.8167V37.873H92.2557V48H89.6824V37.873H86.1131Z" fill="white"/>
<path d="M99.0391 44.5801V44.3311H101.637V44.5386C101.637 45.1307 101.825 45.5734 102.202 45.8667C102.578 46.16 103.106 46.3066 103.787 46.3066C104.457 46.3066 104.971 46.1711 105.331 45.8999C105.691 45.6232 105.871 45.258 105.871 44.8042C105.871 44.3338 105.696 43.9714 105.348 43.7168C105.005 43.4567 104.252 43.1745 103.09 42.8701C101.828 42.5381 100.868 42.0871 100.209 41.5171C99.5565 40.9471 99.2272 40.1696 99.2217 39.1846C99.2217 38.1165 99.6256 37.2643 100.434 36.6279C101.247 35.9915 102.337 35.6733 103.704 35.6733C105.071 35.6733 106.167 35.9998 106.991 36.6528C107.816 37.3058 108.228 38.1802 108.228 39.2759V39.5H105.671V39.3174C105.671 38.8027 105.508 38.3905 105.182 38.0806C104.855 37.7707 104.368 37.6157 103.721 37.6157C103.073 37.6157 102.595 37.7402 102.285 37.9893C101.98 38.2327 101.828 38.5648 101.828 38.9854C101.828 39.4004 101.994 39.7158 102.326 39.9316C102.664 40.1419 103.411 40.4048 104.567 40.7202C105.812 41.0578 106.773 41.5171 107.448 42.0981C108.123 42.6792 108.463 43.5148 108.469 44.605C108.469 45.756 108.04 46.6497 107.182 47.2861C106.33 47.9225 105.198 48.2407 103.787 48.2407C102.387 48.2407 101.244 47.9281 100.359 47.3027C99.479 46.6774 99.0391 45.7699 99.0391 44.5801Z" fill="white"/>
<path d="M12.5 48.0745L17.1074 50.8368C17.9511 51.343 18.9836 50.5947 18.7616 49.6482L17.5403 44.4537L21.6148 40.9541C22.3586 40.3157 21.959 39.1052 20.982 39.0281L15.6197 38.5769L13.5214 33.6686C13.1439 32.7771 11.8561 32.7771 11.4786 33.6686L9.38032 38.5659L4.01801 39.0171C3.04103 39.0942 2.64136 40.3047 3.38519 40.943L7.45966 44.4427L6.23843 49.6372C6.01639 50.5837 7.04888 51.332 7.89264 50.8258L12.5 48.0745Z" fill="white"/>
<path fill-rule="evenodd" clip-rule="evenodd" d="M12.5001 48.0745L7.8927 50.8258C7.04895 51.332 6.01645 50.5837 6.23849 49.6372L7.45972 44.4427L3.38526 40.943C2.64142 40.3047 3.0411 39.0942 4.01808 39.0171L9.38038 38.5659L11.4787 33.6686C11.8561 32.7771 13.144 32.7771 13.5215 33.6686L15.6197 38.5769L20.9821 39.0281C21.959 39.1052 22.3587 40.3157 21.6149 40.9541L17.5404 44.4537L18.7616 49.6482C18.9837 50.5947 17.9512 51.343 17.1074 50.8368L12.5001 48.0745ZM20.878 45.5417L21.6823 48.963C22.5236 52.5488 18.6306 55.2492 15.564 53.4093L12.497 51.5705L9.43616 53.3983L9.43323 53.4C6.36703 55.2365 2.47683 52.5366 3.31779 48.952L4.12214 45.5307L1.4316 43.2197L1.43054 43.2188C-1.3567 40.8255 0.170774 36.3192 3.77233 36.0272L7.3327 35.7276L8.71925 32.4915C10.133 29.1691 14.8684 29.1695 16.2814 32.4927L17.6691 35.7388L21.2278 36.0382C24.8294 36.3303 26.3568 40.8366 23.5696 43.2298L23.5685 43.2307L20.878 45.5417Z" fill="#CC0000"/>
<path d="M45.0879 17.229H49.7456C49.7456 19.1046 50.6362 19.9136 52.0743 19.9136C53.5123 19.9136 54.3041 19.0064 54.3041 17.8357C54.3041 13.9436 45.5711 13.4777 45.5711 6.33084C45.5653 2.74518 47.9639 0.12793 52.0394 0.12793C56.1148 0.12793 58.6357 2.70848 58.6357 7.03584H53.9781C53.9781 5.49118 53.3085 4.71885 52.0045 4.71885C50.84 4.71885 50.124 5.387 50.124 6.4658C50.124 10.1434 58.9793 10.3886 58.9793 17.8664C58.9793 21.7218 56.4 24.5414 51.9928 24.5414C47.766 24.5414 45.0879 21.9608 45.0879 17.229Z" fill="white"/>
<path d="M73.7281 5.12392H69.3616V24.076H64.7039V5.12392H60.3374V0.600342H73.7281V5.12392Z" fill="white"/>
<path d="M82.8971 20.1838H78.1812L77.4476 24.076H72.79L78.1114 0.600342H82.9553L88.3057 24.076H83.648L82.8971 20.1838ZM82.0063 15.6542L81.4881 13.0001C81.2029 11.3206 80.8187 8.47045 80.5973 6.55819H80.4693C80.248 8.47045 79.8871 11.3206 79.5785 13.0001L79.0662 15.6848L82.0063 15.6542Z" fill="white"/>
<path d="M96.3987 16.1936H94.8035V24.076H90.2798V0.600342H96.748C101.179 0.600342 103.787 3.48737 103.787 8.4154C103.787 11.6027 102.669 13.9318 100.695 15.1883L104.899 24.076H99.9619L96.3987 16.1936ZM94.8035 11.6639H96.684C98.2792 11.6639 99.1351 10.5239 99.1351 8.40918C99.1351 6.29463 98.2734 5.12392 96.684 5.12392H94.8035V11.6639Z" fill="white"/>
<path d="M118.96 19.5463V24.076H106.186V20.8887L113.26 5.12392H106.727V0.600342H118.802V3.88574L111.816 19.5463H118.96Z" fill="white"/>
<path d="M15.6421 12.5452C16.1147 12.207 16.6164 11.9155 17.1409 11.6748C17.1177 11.64 17.0899 11.6087 17.0583 11.5822C17.0009 11.5498 16.9418 11.521 16.8813 11.4958C16.1228 11.1718 15.4548 10.6529 14.9391 9.98707C14.4233 9.32123 14.0765 8.52998 13.9308 7.6867C13.7571 6.8625 13.7586 6.00853 13.935 5.18504C14.1115 4.36156 14.4584 3.58866 14.9517 2.9208C15.0461 2.78497 15.0696 2.71706 14.9517 2.58745C14.3163 1.89054 13.5538 1.33424 12.7093 0.951467C11.6813 0.488647 10.5817 0.225086 9.46375 0.173501C7.38662 0.0438887 5.3803 0.266121 3.56283 1.40821C2.41843 2.10252 1.54345 3.1949 1.09027 4.49493C0.77879 5.37809 0.675562 6.32685 0.789309 7.26072C0.848798 7.91312 1.03177 8.5466 1.3276 9.12414C1.62343 9.70184 2.02618 10.212 2.51235 10.6253C3.02199 11.0436 3.59159 11.375 4.20006 11.6069C4.14703 11.755 4.02305 11.7612 3.92277 11.8044C3.07776 12.1246 2.31685 12.6487 1.7017 13.334C1.08655 14.0195 0.634469 14.8469 0.38215 15.7493C0.354306 16.0985 0.293025 16.4439 0.199219 16.7802V17.3051C0.242741 17.477 0.242741 17.6578 0.199219 17.8297V18.2989C0.275932 18.3421 0.25232 18.4162 0.25823 18.4779C0.335289 19.3575 0.584632 20.2109 0.990723 20.9852C1.3968 21.7594 1.95094 22.438 2.61855 22.9784C3.77929 23.897 5.15142 24.4784 6.5958 24.6638C8.38191 24.9687 10.2104 24.8526 11.9481 24.3242C13.04 23.9981 14.0482 23.4201 14.8985 22.6328C15.0283 22.5092 15.0637 22.4475 14.928 22.2932C13.8683 21.0671 13.2761 19.4765 13.264 17.8237C13.187 16.8061 13.3641 15.7853 13.778 14.8611C14.1916 13.9369 14.828 13.141 15.6243 12.5514L15.6421 12.5452ZM5.48058 5.458C5.74949 5.0024 6.11939 4.62137 6.5591 4.34726C6.9988 4.07329 7.49514 3.9142 8.00622 3.88386C8.20273 3.87201 8.39968 3.87201 8.59634 3.88386C9.28443 3.83545 9.97208 3.98486 10.5849 4.3159C10.9895 4.52513 11.3374 4.8371 11.5972 5.22305C11.8569 5.60914 12.0202 6.05708 12.0719 6.52611C12.1855 7.06436 12.1694 7.6237 12.0252 8.15385C11.881 8.68401 11.6133 9.16836 11.2458 9.56341C10.8363 9.98042 10.316 10.258 9.75288 10.3599C8.64272 10.6518 7.46884 10.5067 6.45419 9.95239C6.05192 9.70805 5.71669 9.35909 5.48087 8.93948C5.2452 8.51986 5.11703 8.04375 5.10879 7.55709C5.02643 6.8401 5.15619 6.11401 5.48058 5.47664V5.458ZM12.7387 17.6507C12.7197 18.2577 12.5454 18.8481 12.234 19.3607C11.9228 19.8732 11.4857 20.2889 10.9685 20.5646C10.3624 20.8883 9.69537 21.0674 9.01523 21.0894C8.03714 21.1835 7.05457 20.9683 6.19453 20.472C5.71625 20.1982 5.31282 19.8008 5.02267 19.3177C4.73238 18.8348 4.56505 18.2821 4.53644 17.7124C4.46246 17.2028 4.4983 16.6821 4.6412 16.1887C4.78411 15.6952 5.03062 15.2414 5.36253 14.8603C5.87476 14.3199 6.52716 13.9486 7.23909 13.7922C7.63804 13.683 8.04827 13.6249 8.46051 13.6194C9.46245 13.5597 10.4587 13.8133 11.3225 14.348C11.8372 14.6937 12.2457 15.1875 12.499 15.7699C12.7523 16.3525 12.8396 16.999 12.7506 17.6322" fill="#CC0000"/>
<path d="M42.202 14.0082C41.5148 13.0222 40.5762 12.2584 39.4935 11.8044C39.3873 11.7549 39.2516 11.7487 39.1925 11.6129C39.1925 11.6129 39.1925 11.5759 39.2279 11.5697L39.5111 11.4524C40.5804 11.0281 41.471 10.221 42.025 9.17439C42.3621 8.49352 42.5628 7.74778 42.615 6.98282C42.7115 5.91976 42.5192 4.84992 42.0604 3.8961C41.5326 2.81859 40.7111 1.92908 39.6999 1.34026C38.7247 0.752597 37.6439 0.382689 36.5252 0.253655C34.7985 -0.00889401 33.0372 0.140948 31.3737 0.692054C30.2751 1.05026 29.2779 1.68633 28.4705 2.54405C28.3465 2.67988 28.3229 2.76008 28.4705 2.92683C29.0311 3.67517 29.3988 4.5615 29.5386 5.50116C29.6556 6.30643 29.6256 7.1276 29.45 7.92117C29.234 8.95331 28.7014 9.88342 27.9335 10.5696C27.4931 10.9554 26.9998 11.2697 26.4701 11.5018C26.4169 11.5018 26.3285 11.5327 26.3225 11.6191C26.3166 11.7055 26.411 11.7055 26.4641 11.7364C26.6765 11.8536 26.8949 11.9525 27.1014 12.076C27.7666 12.4284 28.3569 12.9181 28.8365 13.5153C29.3162 14.1127 29.6754 14.8054 29.8926 15.5516C30.3048 17.0326 30.2593 18.612 29.7627 20.0645C29.484 20.8975 29.0395 21.6591 28.4586 22.2992C28.3583 22.4103 28.317 22.4845 28.4586 22.6018C29.2162 23.3208 30.1056 23.871 31.0728 24.2193C32.4448 24.6963 33.8889 24.9055 35.3333 24.8366C37.1177 24.8288 38.8639 24.2962 40.3727 23.2994C41.3705 22.6194 42.1593 21.6526 42.6446 20.5151C43.0119 19.6327 43.2027 18.681 43.2051 17.7186C43.2726 16.4025 42.9221 15.1002 42.208 14.0144L42.202 14.0082ZM32.2116 4.75412C32.8124 4.1916 33.5888 3.87761 34.3951 3.87139C35.016 3.81273 35.6419 3.87342 36.242 4.05042C36.8158 4.2231 37.3234 4.58 37.6929 5.0707C38.0624 5.56141 38.2752 6.16122 38.3015 6.78529C38.3015 6.92112 38.3015 7.05694 38.331 7.19277C38.3664 7.70761 38.2729 8.22317 38.0596 8.68873C37.8465 9.15415 37.5211 9.55354 37.1154 9.8473C36.7512 10.1187 36.3341 10.3022 35.8938 10.3844C35.0135 10.5782 34.0999 10.5272 33.2443 10.2363C32.7272 10.0691 32.269 9.74529 31.9275 9.30573C31.5862 8.86618 31.377 8.33068 31.3266 7.76685C31.2205 7.22731 31.2472 6.6684 31.404 6.14243C31.5609 5.61661 31.8428 5.14108 32.2234 4.76033L32.2116 4.75412ZM38.9506 17.4963C38.9471 17.9778 38.8477 18.4532 38.6587 18.8922C38.4697 19.3311 38.1953 19.7242 37.853 20.046C37.2698 20.5806 36.5458 20.9184 35.7759 21.0152C34.7238 21.2197 33.6373 21.093 32.6542 20.651C32.1473 20.4374 31.7028 20.0884 31.3651 19.6388C31.0276 19.1892 30.8087 18.6547 30.7305 18.0889C30.6181 17.5865 30.6073 17.065 30.6987 16.5578C30.7902 16.0508 30.9819 15.5692 31.2615 15.1442C31.7621 14.4723 32.4685 14.0014 33.2621 13.8107C33.7733 13.6553 34.3059 13.5906 34.8375 13.6194C35.7269 13.5668 36.6109 13.7948 37.375 14.2736C37.8988 14.6047 38.3222 15.0843 38.5959 15.6569C38.8695 16.2295 38.9824 16.8717 38.9211 17.5086" fill="#CC0000"/>
<path d="M19.0362 17.3973L21.8096 13.4402L24.5831 17.3973L21.8037 21.3545L19.0303 17.3973" fill="white"/>
<path d="M18.647 5.199V4.95205C18.6665 4.90842 18.6824 4.86304 18.6941 4.81637C18.7329 4.5047 18.8643 4.21368 19.0698 3.98437C19.2751 3.7552 19.5441 3.59914 19.8389 3.53845C20.1932 3.46433 20.5611 3.51794 20.8826 3.69061C21.2041 3.86328 21.4602 4.14475 21.6091 4.48909C21.6859 4.64962 21.7509 4.81637 21.8158 4.97069C21.9529 4.67216 22.1087 4.38346 22.2819 4.10632C22.4742 3.84868 22.7372 3.65853 23.0357 3.56143C23.3341 3.46433 23.6537 3.4649 23.9518 3.56301C24.2391 3.65231 24.4928 3.83264 24.6778 4.0793C24.8629 4.32595 24.9701 4.62665 24.9846 4.93977C25.0103 5.46082 24.8736 5.97638 24.5951 6.409C24.2174 7.02644 23.7985 7.59445 23.4149 8.17474C22.7917 8.96528 22.2936 9.85523 21.9396 10.8108C21.9396 10.8664 21.8984 10.9219 21.863 11.0145C21.6484 10.2747 21.3066 9.58213 20.8539 8.97106L19.9864 7.73634C19.4436 6.95231 18.8062 6.22998 18.6528 5.21764" fill="white"/>
</g>
</g>
<defs>
<clipPath id="clip0_2611_5328">
<rect width="119" height="54" fill="white"/>
</clipPath>
</defs>
</svg>
