<svg width="56" height="56" viewBox="0 0 56 56" fill="none" xmlns="http://www.w3.org/2000/svg">
<g id="la:id-card">
<g id="Group">
<path id="Vector" d="M28 45.3077V53.0001M37.6154 41.4616V49.1539M18.3846 41.4616V49.1539M32.0923 14.1116C31.8718 13.4861 31.4625 12.9444 30.921 12.5614C30.3795 12.1783 29.7325 11.9728 29.0692 11.9731H26.5885C25.8849 11.9756 25.2069 12.2372 24.6841 12.708C24.1612 13.1787 23.83 13.8256 23.7539 14.525C23.6778 15.2245 23.862 15.9274 24.2714 16.4996C24.6807 17.0718 25.2865 17.4732 25.9731 17.627L29.7539 18.4577C30.5237 18.6294 31.2033 19.0787 31.6628 19.7198C32.1224 20.3609 32.3296 21.1488 32.2449 21.933C32.1602 22.7172 31.7895 23.4427 31.2037 23.9709C30.6179 24.4991 29.858 24.7929 29.0692 24.7962H26.9308C26.2676 24.796 25.6209 24.5902 25.0795 24.2073C24.5381 23.8243 24.1288 23.283 23.9077 22.6577M28 11.9731V8.76929M28 28.0001V24.7962M11.6539 19.3462C11.3988 19.3462 11.1543 19.2449 10.974 19.0646C10.7936 18.8843 10.6923 18.6397 10.6923 18.3847C10.6923 18.1297 10.7936 17.8851 10.974 17.7048C11.1543 17.5244 11.3988 17.4231 11.6539 17.4231C11.9089 17.4231 12.1534 17.5244 12.3338 17.7048C12.5141 17.8851 12.6154 18.1297 12.6154 18.3847C12.6154 18.6397 12.5141 18.8843 12.3338 19.0646C12.1534 19.2449 11.9089 19.3462 11.6539 19.3462ZM44.3462 19.3462C44.0912 19.3462 43.8466 19.2449 43.6663 19.0646C43.4859 18.8843 43.3846 18.6397 43.3846 18.3847C43.3846 18.1297 43.4859 17.8851 43.6663 17.7048C43.8466 17.5244 44.0912 17.4231 44.3462 17.4231C44.6012 17.4231 44.8458 17.5244 45.0261 17.7048C45.2064 17.8851 45.3077 18.1297 45.3077 18.3847C45.3077 18.6397 45.2064 18.8843 45.0261 19.0646C44.8458 19.2449 44.6012 19.3462 44.3462 19.3462Z" stroke="white" stroke-width="3.84615" stroke-linecap="round" stroke-linejoin="round"/>
<path id="Vector_2" d="M49.1538 3H6.84615C5.82609 3 4.84781 3.40522 4.12651 4.12651C3.40522 4.84781 3 5.82609 3 6.84615V29.9231C3 30.9431 3.40522 31.9214 4.12651 32.6427C4.84781 33.364 5.82609 33.7692 6.84615 33.7692H49.1538C50.1739 33.7692 51.1522 33.364 51.8735 32.6427C52.5948 31.9214 53 30.9431 53 29.9231V6.84615C53 5.82609 52.5948 4.84781 51.8735 4.12651C51.1522 3.40522 50.1739 3 49.1538 3Z" stroke="white" stroke-width="3.84615" stroke-linecap="round" stroke-linejoin="round"/>
</g>
</g>
</svg>
