<svg width="40" height="40" viewBox="0 0 40 40" fill="none" xmlns="http://www.w3.org/2000/svg">
<g id="touch-id">
<path id="Vector" fill-rule="evenodd" clip-rule="evenodd" d="M5.54883 14.4514C5.54883 6.47012 12.0189 0 20.0002 0C23.155 0 26.0776 1.01257 28.455 2.73014C29.1286 3.2168 29.2802 4.1574 28.7936 4.83102C28.3068 5.50464 27.3662 5.6562 26.6926 5.16954C24.811 3.81014 22.5014 3.0094 20.0002 3.0094C13.681 3.0094 8.55825 8.13216 8.55825 14.4514V15.337C8.55825 16.168 7.88457 16.8417 7.05355 16.8417C6.22251 16.8417 5.54883 16.168 5.54883 15.337V14.4514ZM31.0922 7.60292C31.8448 7.25038 32.7406 7.57464 33.0932 8.32718C33.9652 10.1885 34.4516 12.2652 34.4516 14.4514V25.5486C34.4516 33.5298 27.9816 40 20.0002 40C18.6724 40 17.3841 39.8206 16.1594 39.4836C15.3581 39.2632 14.8872 38.435 15.1076 37.6338C15.328 36.8324 16.1563 36.3616 16.9575 36.582C17.9247 36.848 18.9446 36.9906 20.0002 36.9906C26.3194 36.9906 31.4422 31.8678 31.4422 25.5486V14.4514C31.4422 12.7156 31.0568 11.0739 30.368 9.60386C30.0154 8.85132 30.3398 7.95546 31.0922 7.60292ZM7.05355 20.2664C7.88457 20.2664 8.55825 20.9402 8.55825 21.7712V25.5486C8.55825 28.765 9.88339 31.6692 12.0214 33.7496C12.617 34.3292 12.63 35.2818 12.0504 35.8774C11.4709 36.473 10.5182 36.486 9.92267 35.9064C7.22645 33.2828 5.54883 29.6102 5.54883 25.5486V21.7712C5.54883 20.9402 6.22251 20.2664 7.05355 20.2664ZM17.3671 6.15522C18.1927 5.86344 19.0796 5.70532 20.0002 5.70532C24.3632 5.70532 27.9 9.24214 27.9 13.605V26.395C27.9 27.3156 27.7418 28.2026 27.45 29.028C27.173 29.8116 26.3134 30.2222 25.5298 29.9454C24.7464 29.6684 24.3358 28.8088 24.6126 28.0252C24.7922 27.5172 24.8906 26.9692 24.8906 26.395V13.605C24.8906 10.9042 22.701 8.71474 20.0002 8.71474C19.426 8.71474 18.8779 8.81308 18.37 8.99262C17.5865 9.26954 16.7268 8.85888 16.4499 8.07536C16.1729 7.29184 16.5836 6.43216 17.3671 6.15522ZM14.1207 10.668C14.9296 10.8586 15.4308 11.6688 15.2402 12.4777C15.1552 12.8381 15.11 13.2153 15.11 13.605V26.395C15.11 29.0958 17.2994 31.2852 20.0002 31.2852C20.2796 31.2852 20.5524 31.262 20.8172 31.2176C21.6366 31.08 22.4126 31.633 22.55 32.4526C22.6876 33.2722 22.1346 34.048 21.315 34.1856C20.8864 34.2574 20.4472 34.2946 20.0002 34.2946C15.6374 34.2946 12.1006 30.7578 12.1006 26.395V13.605C12.1006 12.9812 12.1731 12.3724 12.311 11.7874C12.5016 10.9785 13.3119 10.4773 14.1207 10.668ZM20.0002 13.4796C20.8312 13.4796 21.505 14.1533 21.505 14.9843V25.0156C21.505 25.8466 20.8312 26.5204 20.0002 26.5204C19.1692 26.5204 18.4955 25.8466 18.4955 25.0156V14.9843C18.4955 14.1533 19.1692 13.4796 20.0002 13.4796Z" fill="#1E93FF"/>
</g>
</svg>
