<svg width="40" height="40" viewBox="0 0 40 40" fill="none" xmlns="http://www.w3.org/2000/svg">
<g id="chart-line-up">
<path id="Vector" fill-rule="evenodd" clip-rule="evenodd" d="M32.857 12.769C33.2232 13.024 33.457 13.4288 33.4946 13.8735L33.993 19.7638C34.063 20.5892 33.4504 21.315 32.625 21.385C31.7994 21.4548 31.0736 20.8422 31.0038 20.0168L30.8672 18.4032L25.8776 25.8876C24.0452 28.6364 19.9743 28.5394 18.2747 25.7066L17.1527 23.8368C16.5861 22.8926 15.2292 22.8602 14.6184 23.7764L11.248 28.832C10.7885 29.5214 9.85716 29.7076 9.16786 29.248C8.47858 28.7886 8.2923 27.8572 8.75184 27.168L12.1222 22.1124C13.9547 19.3637 18.0255 19.4605 19.7252 22.2932L20.8472 24.1632C21.4136 25.1074 22.7706 25.1398 23.3814 24.2236L28.5172 16.5199L26.7026 17.0219C25.9042 17.2428 25.0778 16.7747 24.857 15.9762C24.636 15.1778 25.1042 14.3514 25.9026 14.1306L31.6 12.5543C32.03 12.4353 32.4908 12.514 32.857 12.769ZM3.38448 2.71997C2.54246 2.71997 1.85986 3.40255 1.85986 4.24457V26.5098C1.85983 29.0262 1.8598 31.069 2.07624 32.6788C2.30172 34.356 2.78698 35.7896 3.9286 36.9312C5.0702 38.0728 6.50384 38.5582 8.18106 38.7836C9.79086 39 11.8335 39 14.3499 39H36.6152C37.4572 39 38.1398 38.3174 38.1398 37.4754C38.1398 36.6334 37.4572 35.9508 36.6152 35.9508H14.4614C11.8074 35.9508 9.97034 35.9474 8.58736 35.7616C7.24832 35.5816 6.56536 35.2558 6.08472 34.7752C5.60408 34.2944 5.2783 33.6116 5.09828 32.2724C4.91234 30.8894 4.9091 29.0524 4.9091 26.3984V4.24457C4.9091 3.40255 4.2265 2.71997 3.38448 2.71997Z" fill="#1E93FF"/>
</g>
</svg>
