<svg width="40" height="40" viewBox="0 0 40 40" fill="none" xmlns="http://www.w3.org/2000/svg">
<g id="phone-volume">
<path id="Vector" fill-rule="evenodd" clip-rule="evenodd" d="M6.08982 4.5192L5.78902 4.8201C4.53144 6.07718 3.69912 6.90918 3.1057 7.9557C1.80882 10.2428 1.6359 13.4131 2.67634 15.8277C3.15224 16.9321 3.81708 17.76 4.81306 19.0003L4.91342 19.1253C6.95932 21.6738 9.53476 24.6696 12.4326 27.5674C15.3304 30.4652 18.3261 33.0406 20.8748 35.0866L20.9998 35.187C22.24 36.183 23.0678 36.8478 24.1724 37.3236C26.587 38.364 29.7572 38.1912 32.0444 36.8942C33.0908 36.3008 33.9228 35.4686 35.18 34.211L35.4808 33.9102C36.3058 33.0862 36.9442 32.4488 37.3316 31.7322C38.2228 30.0842 38.2228 28.098 37.3316 26.45C36.9442 25.7334 36.3058 25.096 35.4808 24.272L33.4898 22.281C33.4054 22.1966 33.3374 22.1286 33.2708 22.0666C31.6752 20.5784 29.3186 20.2484 27.3754 21.241C27.2944 21.2824 27.209 21.3298 27.1048 21.3876L27.0858 21.3982C26.9152 21.493 26.8586 21.5242 26.8088 21.55C25.4892 22.2304 23.901 22.122 22.6862 21.2684C22.6402 21.236 22.5886 21.1976 22.4324 21.0804L22.1726 20.8856C21.9254 20.7002 21.8186 20.62 21.7148 20.5388C20.8752 19.8816 20.1184 19.1249 19.4612 18.2851C19.38 18.1814 19.2998 18.0745 19.1145 17.8274L18.9196 17.5676C18.8025 17.4115 18.7639 17.3597 18.7316 17.3138C17.8781 16.099 17.7696 14.5108 18.45 13.1913C18.4758 13.1414 18.507 13.0849 18.6018 12.9142L18.6133 12.8935C18.6712 12.7893 18.7178 12.7055 18.7591 12.6246C19.7517 10.6815 19.4217 8.32482 17.9334 6.72916C17.8714 6.66268 17.8024 6.59374 17.7181 6.50942L15.728 4.51918C14.904 3.69418 14.2665 3.05588 13.5499 2.66836C11.902 1.77721 9.91582 1.77721 8.2679 2.66836C7.5513 3.05588 6.9138 3.6942 6.08982 4.5192ZM5.74172 9.45044C6.10844 8.8037 6.627 8.26768 8.07294 6.82172C8.59792 6.29676 8.93852 5.9613 9.1846 5.7371C9.43044 5.51316 9.5756 5.40622 9.70936 5.33388C10.4579 4.92912 11.36 4.92912 12.1085 5.33388C12.2423 5.40622 12.3874 5.51316 12.6332 5.7371C12.8793 5.9613 13.2199 6.29676 13.7449 6.82172L15.5598 8.63664C15.6686 8.74544 15.6962 8.77332 15.7174 8.79604C16.3359 9.45916 16.473 10.4385 16.0605 11.246C16.0464 11.2737 16.0275 11.3081 15.9528 11.4426L15.9413 11.4634C15.8624 11.6052 15.8068 11.7054 15.7567 11.8024C14.5595 14.1242 14.7504 16.9186 16.2522 19.056C16.315 19.1453 16.3848 19.2385 16.4822 19.3682L16.701 19.66C16.8727 19.8889 16.9722 20.0216 17.0748 20.1528C17.8833 21.1858 18.8143 22.1168 19.8473 22.9252C19.9784 23.0278 20.1124 23.1282 20.3414 23.3L20.6336 23.5192C20.7632 23.6164 20.8548 23.685 20.944 23.7478C23.0814 25.2496 25.8758 25.4406 28.1976 24.2432C28.2946 24.1932 28.3964 24.1368 28.5382 24.058L28.5574 24.0472C28.692 23.9726 28.7262 23.9536 28.754 23.9396C29.5614 23.527 30.5408 23.6642 31.204 24.2826C31.2266 24.3038 31.2546 24.3314 31.3634 24.4402L33.1782 26.2552C33.7032 26.7802 34.0388 27.1208 34.2628 27.3668C34.4868 27.6126 34.5938 27.7578 34.6662 27.8916C35.0708 28.64 35.0708 29.5422 34.6662 30.2906C34.5938 30.4244 34.4868 30.5696 34.2628 30.8154C34.0388 31.0616 33.7032 31.4022 33.1782 31.927C31.7324 33.373 31.1964 33.8916 30.5496 34.2582C29.088 35.0872 26.9146 35.2056 25.3714 34.5408C24.6844 34.2446 24.1746 33.8496 22.7718 32.7234C20.2826 30.7254 17.3745 28.2238 14.5753 25.4246C11.7761 22.6254 9.27472 19.7175 7.27652 17.2283C6.15042 15.8255 5.75538 15.3157 5.45928 14.6285C4.79436 13.0853 4.9129 10.9121 5.74172 9.45044ZM31.4926 8.49324C30.2202 7.22066 28.4756 6.21424 26.631 6.09866C25.7958 6.04634 25.0764 6.68094 25.024 7.5161C24.9716 8.35126 25.6062 9.07072 26.4414 9.12304C27.3444 9.17962 28.433 9.71914 29.35 10.636C30.2668 11.5528 30.8064 12.6416 30.8628 13.5445C30.9152 14.3796 31.6346 15.0143 32.4698 14.9619C33.305 14.9096 33.9396 14.1901 33.8872 13.355C33.7716 11.5104 32.7652 9.7658 31.4926 8.49324ZM27.589 12.4111C26.7682 11.5904 25.5914 10.9536 24.2874 10.9536C23.4506 10.9536 22.7722 11.632 22.7722 12.4688C22.7722 13.3056 23.4506 13.9839 24.2874 13.9839C24.606 13.984 25.051 14.1586 25.4462 14.5539C25.8414 14.9492 26.0162 15.3941 26.0162 15.7126C26.0162 16.5494 26.6944 17.2278 27.5312 17.2278C28.368 17.2278 29.0464 16.5494 29.0464 15.7126C29.0464 14.4088 28.4098 13.2319 27.589 12.4111Z" fill="#1E93FF"/>
</g>
</svg>
