<svg width="56" height="56" viewBox="0 0 56 56" fill="none" xmlns="http://www.w3.org/2000/svg">
<g id="la:id-card">
<path id="Vector" fill-rule="evenodd" clip-rule="evenodd" d="M36.7999 6.66025C36.6157 6.85886 36.4724 7.09181 36.3783 7.3458C36.2841 7.59979 36.2409 7.86983 36.2511 8.14052C36.2613 8.41121 36.3248 8.67723 36.4378 8.9234C36.5508 9.16956 36.7113 9.39105 36.9099 9.57522L42.6848 14.9377H19.0626C18.5156 14.9377 17.991 15.155 17.6042 15.5417C17.2174 15.9285 17.0001 16.4531 17.0001 17.0001C17.0001 17.5471 17.2174 18.0717 17.6042 18.4585C17.991 18.8453 18.5156 19.0626 19.0626 19.0626H42.6848L36.9099 24.425C36.7113 24.6092 36.5509 24.8307 36.4379 25.0769C36.3248 25.3231 36.2614 25.5891 36.2512 25.8597C36.241 26.1304 36.2842 26.4005 36.3783 26.6545C36.4725 26.9084 36.6157 27.1414 36.7999 27.34C36.9841 27.5386 37.2056 27.699 37.4518 27.8121C37.6979 27.9251 37.9639 27.9885 38.2346 27.9987C38.5053 28.0089 38.7753 27.9657 39.0293 27.8716C39.2833 27.7774 39.5163 27.6342 39.7149 27.45L49.3398 18.5126C49.548 18.3195 49.7142 18.0856 49.8278 17.8253C49.9414 17.565 50 17.2841 50 17.0001C50 16.7162 49.9414 16.4352 49.8278 16.175C49.7142 15.9147 49.548 15.6807 49.3398 15.4876L39.7149 6.55025C39.5163 6.36605 39.2833 6.22278 39.0293 6.12862C38.7753 6.03446 38.5053 5.99125 38.2346 6.00147C37.9639 6.01168 37.6979 6.07512 37.4517 6.18815C37.2056 6.30119 36.9841 6.46161 36.7999 6.66025ZM19.2001 28.66C19.016 28.4614 18.7945 28.3009 18.5483 28.1879C18.3021 28.0749 18.0361 28.0114 17.7654 28.0012C17.4947 27.991 17.2247 28.0342 16.9707 28.1284C16.7167 28.2225 16.4838 28.3658 16.2852 28.55L6.66026 37.4874C6.45201 37.6805 6.28587 37.9145 6.17226 38.1747C6.05864 38.435 6 38.7159 6 38.9999C6 39.2839 6.05864 39.5648 6.17226 39.825C6.28587 40.0853 6.45201 40.3193 6.66026 40.5124L16.2852 49.4498C16.6863 49.8217 17.2188 50.0191 17.7654 49.9985C18.3121 49.9778 18.8282 49.7409 19.2001 49.3398C19.5721 48.9386 19.7695 48.4062 19.7488 47.8595C19.7282 47.3128 19.4913 46.7968 19.0901 46.4248L13.3152 41.0624H36.9374C37.4844 41.0624 38.009 40.8451 38.3958 40.4583C38.7826 40.0715 38.9999 39.5469 38.9999 38.9999C38.9999 38.4529 38.7826 37.9283 38.3958 37.5415C38.009 37.1547 37.4844 36.9374 36.9374 36.9374H13.3152L19.0901 31.575C19.2888 31.3908 19.4492 31.1693 19.5622 30.9231C19.6753 30.677 19.7387 30.4109 19.7489 30.1403C19.7591 29.8696 19.7159 29.5995 19.6217 29.3455C19.5276 29.0916 19.3843 28.8586 19.2001 28.66Z" fill="white"/>
</g>
</svg>
