<svg width="56" height="56" viewBox="0 0 56 56" fill="none" xmlns="http://www.w3.org/2000/svg">
<g id="la:id-card">
<g id="Group 480965552">
<path id="Vector" d="M46.1963 16.1633H10.8037C7.87163 16.1633 5.49475 18.539 5.49475 21.4694V42.6939C5.49475 45.6244 7.87163 48 10.8037 48H46.1963C49.1284 48 51.5052 45.6244 51.5052 42.6939V21.4694C51.5052 18.539 49.1284 16.1633 46.1963 16.1633Z" stroke="white" stroke-width="3.53741" stroke-linejoin="round"/>
<path id="Vector_2" d="M45.6831 16.1633V12.847C45.6829 12.0336 45.503 11.2303 45.1564 10.4944C44.8097 9.75849 44.3048 9.10813 43.6778 8.58971C43.0507 8.07129 42.3169 7.69758 41.5286 7.49526C40.7404 7.29294 39.9172 7.26698 39.1178 7.41924L9.98962 12.3882C8.72469 12.6291 7.58353 13.3037 6.76297 14.2956C5.9424 15.2874 5.49388 16.5344 5.49475 17.8214V23.2381" stroke="white" stroke-width="3.53741" stroke-linejoin="round"/>
<path id="Vector_3" d="M40.8874 35.619C40.1874 35.619 39.5031 35.4115 38.9211 35.0228C38.3391 34.6342 37.8854 34.0817 37.6176 33.4353C37.3497 32.7889 37.2796 32.0777 37.4162 31.3915C37.5527 30.7053 37.8898 30.075 38.3848 29.5803C38.8798 29.0856 39.5104 28.7487 40.1969 28.6122C40.8835 28.4757 41.5951 28.5457 42.2418 28.8135C42.8886 29.0812 43.4413 29.5346 43.8302 30.1163C44.2191 30.698 44.4267 31.382 44.4267 32.0816C44.4267 33.0198 44.0538 33.9195 43.3901 34.5829C42.7263 35.2463 41.8261 35.619 40.8874 35.619Z" fill="white"/>
</g>
</g>
</svg>
